# xmcd
#
# Track frame offsets: 
#        150
#        14715
#        27892
#        53035
#        75577
#        94177
#        116812
#        134757
#        151017
#        174472
#        194525
#        216387
#        238102
#        247002
#        260107
#        275377
#
# Disc length: 3794 seconds
#
# Revision: 9
# Processed by: cddbd v1.5.2PL0 Copyright (c) Steve Scherf et al.
# Submitted via: ExactAudioCopyFreeDBPlugin 1.0
#
DISCID=ec0ed010
DTITLE=Various Artist - Lazy afternoon
DYEAR=2001
DGENRE=Pop
TTITLE0=Bill Withers - Who is he and what is he to you?
TTITLE1=Keiko Lee - You'd be so nice to come home to
TTITLE2=The Isley Brothers - That lady
TTITLE3=Earth Wind and Fire - Reasons
TTITLE4=Blood, Sweat and Tears - Spinning wheel
TTITLE5=Regina Belle - Love TKO
TTITLE6=Marvin Gaye - Sexual healing
TTITLE7=Jose Koning - Aguas de marca
TTITLE8=Babyface - How come how long
TTITLE9=Manhattans - Kiss and say goodbye
TTITLE10=Des'ree - I'm kissing you
TTITLE11=Billy Paul - Me and mrs. Jones
TTITLE12=Vic Damone Orchestra - Let's fall in love
TTITLE13=Aretha Franklin - It ain't necessarily so
TTITLE14=Louis Armstrong - Mack the knife
TTITLE15=Bill Withers - Ain't no sunshine
EXTD=YEAR: 2001 ID3G:  12
EXTT0=
EXTT1=
EXTT2=
EXTT3=
EXTT4=
EXTT5=
EXTT6=
EXTT7=
EXTT8=
EXTT9=
EXTT10=
EXTT11=
EXTT12=
EXTT13=
EXTT14=
EXTT15=
PLAYORDER=
